<svg width="163" height="11" viewBox="0 0 163 11" fill="none" xmlns="http://www.w3.org/2000/svg">
<path d="M5.39067 0.483999H6.89067V10H5.39067V5.824H1.69467V10H0.182672V0.483999H1.69467V4.516H5.39067V0.483999ZM14.2877 10L13.7477 7.612H10.1117L9.49973 10H8.09573L10.2677 1.972C10.3797 1.564 10.4957 1.252 10.6157 1.036C10.7357 0.812 10.9077 0.656 11.1317 0.568C11.3557 0.48 11.6677 0.439999 12.0677 0.447999L13.5557 0.483999L15.7997 10H14.2877ZM11.5877 1.948L10.4357 6.316H13.4597L12.4157 1.78H11.7557C11.6597 1.78 11.6037 1.836 11.5877 1.948ZM22.6276 10.012H17.5396C16.7236 10.012 16.3156 9.6 16.3156 8.776L20.9836 1.912C21.0236 1.856 21.0316 1.808 21.0076 1.768C20.9916 1.728 20.9516 1.708 20.8876 1.708H16.6876V0.472H21.4876C21.9356 0.472 22.2636 0.596 22.4716 0.844C22.6796 1.084 22.7836 1.416 22.7836 1.84L18.1996 8.548C18.1676 8.604 18.1556 8.656 18.1636 8.704C18.1796 8.752 18.2196 8.776 18.2836 8.776H22.6396L22.6276 10.012ZM29.2112 10H24.1592V0.483999H25.6712V8.692H29.2112V10ZM29.8746 2.284C29.8746 1.62 30.0466 1.136 30.3906 0.831999C30.7426 0.527999 31.2826 0.375999 32.0106 0.375999H34.4826C35.2026 0.375999 35.7386 0.527999 36.0906 0.831999C36.4426 1.136 36.6186 1.62 36.6186 2.284V8.212C36.6186 8.868 36.4426 9.348 36.0906 9.652C35.7386 9.956 35.2026 10.108 34.4826 10.108H32.0106C31.2826 10.108 30.7426 9.956 30.3906 9.652C30.0466 9.348 29.8746 8.868 29.8746 8.212V2.284ZM31.5666 1.732C31.4626 1.732 31.4106 1.784 31.4106 1.888V8.596C31.4106 8.7 31.4626 8.752 31.5666 8.752H34.9146C35.0186 8.752 35.0706 8.7 35.0706 8.596V1.888C35.0706 1.784 35.0186 1.732 34.9146 1.732H31.5666ZM44.7224 4.54C45.4664 4.54 46.0344 4.712 46.4264 5.056C46.8184 5.392 47.0144 5.892 47.0144 6.556V8.02C47.0144 8.7 46.8224 9.216 46.4384 9.568C46.0624 9.912 45.5024 10.076 44.7584 10.06L41.0864 10V8.692H45.2744C45.4024 8.692 45.4664 8.628 45.4664 8.5V6.1C45.4664 5.972 45.4024 5.908 45.2744 5.908H43.1384C42.3944 5.908 41.8304 5.744 41.4464 5.416C41.0704 5.088 40.8824 4.584 40.8824 3.904V2.488C40.8824 1.824 41.0784 1.312 41.4704 0.952C41.8624 0.584 42.4304 0.408 43.1744 0.424L46.6664 0.483999V1.792H42.6224C42.4944 1.792 42.4304 1.86 42.4304 1.996V4.348C42.4304 4.476 42.4944 4.54 42.6224 4.54H44.7224ZM48.7728 10V0.483999H50.2848V10H48.7728ZM59.4898 0.483999C59.8498 0.483999 60.1018 0.563999 60.2458 0.723999C60.3978 0.876 60.4738 1.124 60.4738 1.468V10H59.0218V2.836L56.8258 7.084H55.9378L53.8138 2.884V10H52.4818V0.483999H53.2978C53.5618 0.483999 53.7538 0.527999 53.8738 0.615999C53.9938 0.696 54.1058 0.848 54.2098 1.072L56.4778 5.416L59.0338 0.483999H59.4898ZM62.5038 10V0.483999L66.5238 0.424C67.2678 0.408 67.8278 0.576 68.2038 0.927999C68.5798 1.272 68.7678 1.784 68.7678 2.464V4.408C68.7678 5.048 68.5798 5.556 68.2038 5.932C67.8278 6.3 67.2678 6.484 66.5238 6.484H64.0158V10H62.5038ZM67.0278 1.744H64.0158V5.176H67.0278C67.1558 5.176 67.2198 5.112 67.2198 4.984V1.936C67.2198 1.808 67.1558 1.744 67.0278 1.744ZM75.2776 10H70.2256V0.483999H71.7376V8.692H75.2776V10ZM76.3897 10V0.483999H81.7777V1.792H77.9017V4.528H81.5137V5.824H77.9017V8.692H81.8617V10H76.3897ZM83.0018 10V8.308H84.4178V10H83.0018ZM94.1368 0.483999H95.6368V10H94.1368V5.824H90.4408V10H88.9288V0.483999H90.4408V4.516H94.1368V0.483999ZM103.034 10L102.494 7.612H98.8578L98.2458 10H96.8418L99.0138 1.972C99.1258 1.564 99.2418 1.252 99.3618 1.036C99.4818 0.812 99.6538 0.656 99.8778 0.568C100.102 0.48 100.414 0.439999 100.814 0.447999L102.302 0.483999L104.546 10H103.034ZM100.334 1.948L99.1818 6.316H102.206L101.162 1.78H100.502C100.406 1.78 100.35 1.836 100.334 1.948ZM111.374 10.012H106.286C105.47 10.012 105.062 9.6 105.062 8.776L109.73 1.912C109.77 1.856 109.778 1.808 109.754 1.768C109.738 1.728 109.698 1.708 109.634 1.708H105.434V0.472H110.234C110.682 0.472 111.01 0.596 111.218 0.844C111.426 1.084 111.53 1.416 111.53 1.84L106.946 8.548C106.914 8.604 106.902 8.656 106.91 8.704C106.926 8.752 106.966 8.776 107.03 8.776H111.386L111.374 10.012ZM117.957 10H112.905V0.483999H114.417V8.692H117.957V10ZM118.621 2.284C118.621 1.62 118.793 1.136 119.137 0.831999C119.489 0.527999 120.029 0.375999 120.757 0.375999H123.229C123.949 0.375999 124.485 0.527999 124.837 0.831999C125.189 1.136 125.365 1.62 125.365 2.284V8.212C125.365 8.868 125.189 9.348 124.837 9.652C124.485 9.956 123.949 10.108 123.229 10.108H120.757C120.029 10.108 119.489 9.956 119.137 9.652C118.793 9.348 118.621 8.868 118.621 8.212V2.284ZM120.313 1.732C120.209 1.732 120.157 1.784 120.157 1.888V8.596C120.157 8.7 120.209 8.752 120.313 8.752H123.661C123.765 8.752 123.817 8.7 123.817 8.596V1.888C123.817 1.784 123.765 1.732 123.661 1.732H120.313ZM131.452 10V1.792H129.136V0.483999H135.268V1.792H132.964V10H131.452ZM138.405 10.108C137.677 10.108 137.137 9.956 136.785 9.652C136.441 9.348 136.269 8.868 136.269 8.212V0.483999H137.805V8.596C137.805 8.7 137.857 8.752 137.961 8.752H141.273C141.377 8.752 141.429 8.7 141.429 8.596V0.483999H142.977V8.212C142.977 8.868 142.801 9.348 142.449 9.652C142.097 9.956 141.561 10.108 140.841 10.108H138.405ZM147.093 10V6.58C146.741 6.516 146.481 6.38 146.313 6.172C146.145 5.956 145.977 5.632 145.809 5.2L144.009 0.483999H145.605L147.381 5.164C147.413 5.268 147.477 5.32 147.573 5.32H148.209C148.305 5.32 148.369 5.268 148.401 5.164L150.189 0.483999H151.701L149.853 5.212C149.733 5.516 149.621 5.764 149.517 5.956C149.421 6.148 149.301 6.296 149.157 6.4C149.021 6.496 148.833 6.56 148.593 6.592V10H147.093ZM152.5 2.284C152.5 1.62 152.672 1.136 153.016 0.831999C153.368 0.527999 153.908 0.375999 154.636 0.375999H157.108C157.828 0.375999 158.364 0.527999 158.716 0.831999C159.068 1.136 159.244 1.62 159.244 2.284V8.212C159.244 8.868 159.068 9.348 158.716 9.652C158.364 9.956 157.828 10.108 157.108 10.108H154.636C153.908 10.108 153.368 9.956 153.016 9.652C152.672 9.348 152.5 8.868 152.5 8.212V2.284ZM154.192 1.732C154.088 1.732 154.036 1.784 154.036 1.888V8.596C154.036 8.7 154.088 8.752 154.192 8.752H157.54C157.644 8.752 157.696 8.7 157.696 8.596V1.888C157.696 1.784 157.644 1.732 157.54 1.732H154.192ZM160.791 10V8.308H162.207V10H160.791Z" fill="black"/>
</svg>
