<svg width="62" height="21" viewBox="0 0 62 21" fill="none" xmlns="http://www.w3.org/2000/svg">
<path d="M4.56055 15.6836C5.17839 15.929 5.66504 16.1195 6.02051 16.2549C6.37598 16.3903 6.74837 16.5088 7.1377 16.6104C7.24772 16.3311 7.30273 15.9502 7.30273 15.4678C7.30273 14.8161 7.25618 13.6227 7.16309 11.8877C7.02767 9.56868 6.95996 7.79134 6.95996 6.55566C6.95996 5.70085 6.98535 4.96452 7.03613 4.34668L4.94141 4.21973L4.90332 8.21875C4.26855 8.43034 3.55339 8.53613 2.75781 8.53613C2.55469 8.53613 2.40234 8.5319 2.30078 8.52344C2.02148 8.30339 1.72949 7.95638 1.4248 7.48242C1.12858 7.00846 0.883138 6.47526 0.688477 5.88281C0.493815 5.29036 0.396484 4.71908 0.396484 4.16895C0.396484 3.22103 0.55306 2.4974 0.866211 1.99805C1.17936 1.4987 1.61947 1.15592 2.18652 0.969727C2.75358 0.775065 3.51107 0.648112 4.45898 0.588867C5.93164 0.504232 7.66243 0.440755 9.65137 0.398438C11.6488 0.347656 13.5573 0.322266 15.377 0.322266C15.6224 0.635417 15.8044 0.986654 15.9229 1.37598C16.0498 1.7653 16.1133 2.15462 16.1133 2.54395C16.1133 3.27181 15.9271 3.88118 15.5547 4.37207C15.1823 4.86296 14.6322 5.1084 13.9043 5.1084C13.4303 5.1084 12.859 5.02376 12.1904 4.85449C12.0381 8.83236 11.818 12.5055 11.5303 15.874C11.471 16.5257 11.3737 17.1012 11.2383 17.6006C11.1029 18.0999 10.8955 18.5358 10.6162 18.9082C10.2692 19.3652 9.79102 19.7038 9.18164 19.9238C8.57227 20.1439 7.89941 20.2539 7.16309 20.2539C6.46908 20.2539 5.78353 20.1312 5.10645 19.8857C4.43783 19.6403 3.93424 19.1875 3.5957 18.5273C3.60417 17.9772 3.67188 17.4906 3.79883 17.0674C3.92578 16.6357 4.17969 16.1745 4.56055 15.6836ZM15.9229 12.4971C15.9229 10.9652 16.1683 9.63639 16.6592 8.51074C17.1501 7.38509 17.9033 6.51335 18.9189 5.89551C19.9346 5.26921 21.2083 4.95605 22.7402 4.95605C24.4329 4.95605 25.7617 5.27344 26.7266 5.9082C27.6914 6.53451 28.3643 7.40625 28.7451 8.52344C29.1344 9.64062 29.3291 11.0075 29.3291 12.624C29.3291 14.0882 29.071 15.3958 28.5547 16.5469C28.0469 17.6895 27.2767 18.5951 26.2441 19.2637C25.2201 19.9238 23.9632 20.2539 22.4736 20.2539C20.1715 20.2539 18.5042 19.5472 17.4717 18.1338C16.4391 16.7119 15.9229 14.833 15.9229 12.4971ZM22.9941 16.5342C23.4258 16.5342 23.6882 16.5003 23.7812 16.4326C23.9759 16.0941 24.124 15.6159 24.2256 14.998C24.3271 14.3802 24.3779 13.7116 24.3779 12.9922C24.3779 12.332 24.3356 11.7142 24.251 11.1387C24.1663 10.5547 24.0479 10.0977 23.8955 9.76758C23.8024 9.65755 23.6162 9.57715 23.3369 9.52637C23.0576 9.46712 22.7529 9.4375 22.4229 9.4375C21.9912 9.4375 21.695 9.48405 21.5342 9.57715C21.111 10.305 20.8994 11.3164 20.8994 12.6113C20.8994 13.2207 20.946 13.8428 21.0391 14.4775C21.1322 15.1123 21.2507 15.6878 21.3945 16.2041C21.4961 16.3141 21.7035 16.3988 22.0166 16.458C22.3298 16.5088 22.6556 16.5342 22.9941 16.5342ZM30.6875 17.1816C30.6875 16.75 30.7594 16.3057 30.9033 15.8486C31.6312 15.6455 32.3125 15.5482 32.9473 15.5566C32.7865 13.9062 32.651 12.1035 32.541 10.1484C32.431 8.1849 32.3548 6.3737 32.3125 4.71484H32.2998L30.4844 4.44824C30.3743 4.13509 30.2897 3.78809 30.2305 3.40723C30.1712 3.02637 30.1416 2.6582 30.1416 2.30273C30.1416 2.0319 30.1628 1.73568 30.2051 1.41406C31.1107 1.01628 32.5326 0.736979 34.4707 0.576172C36.4089 0.406901 38.3343 0.322266 40.2471 0.322266C41.5335 0.322266 42.6253 0.423828 43.5225 0.626953C44.4196 0.830078 45.1686 1.29134 45.7695 2.01074C46.3789 2.72168 46.6836 3.78809 46.6836 5.20996C46.6836 7.84212 46.0488 11.2952 44.7793 15.5693C44.5677 16.2718 44.3307 16.9023 44.0684 17.4609C43.806 18.0195 43.4717 18.502 43.0654 18.9082C42.7184 19.2975 42.3587 19.5938 41.9863 19.7969C41.6224 19.9915 41.1823 20.0889 40.666 20.0889C40.4036 20.0889 40.0482 20.0465 39.5996 19.9619C39.041 19.8519 38.5459 19.7122 38.1143 19.543C37.6826 19.3652 37.3229 19.1875 37.0352 19.0098C36.7559 18.832 36.4215 18.6077 36.0322 18.3369C35.863 18.5824 35.5794 18.8532 35.1816 19.1494C34.7923 19.4456 34.3607 19.6995 33.8867 19.9111C33.4128 20.1227 32.9727 20.237 32.5664 20.2539C31.9824 20.0339 31.5212 19.6445 31.1826 19.0859C30.8525 18.5189 30.6875 17.8841 30.6875 17.1816ZM40.4629 15.4551C40.6999 14.2871 40.8861 12.9329 41.0215 11.3926C41.1569 9.84375 41.2712 8.1722 41.3643 6.37793L41.415 5.47656C41.3643 5.38346 41.1569 5.29036 40.793 5.19727C40.4375 5.10417 39.9678 5.05762 39.3838 5.05762L38.3936 5.04492C37.9196 5.04492 37.5387 5.06608 37.251 5.1084C37.251 5.46387 37.2552 5.76432 37.2637 6.00977C37.2891 7.48242 37.3018 8.7985 37.3018 9.95801C37.3018 11.3037 37.2891 13.2165 37.2637 15.6963C38.3724 15.6963 39.4388 15.6159 40.4629 15.4551ZM47.9912 12.4971C47.9912 10.9652 48.2367 9.63639 48.7275 8.51074C49.2184 7.38509 49.9717 6.51335 50.9873 5.89551C52.0029 5.26921 53.2767 4.95605 54.8086 4.95605C56.5013 4.95605 57.8301 5.27344 58.7949 5.9082C59.7598 6.53451 60.4326 7.40625 60.8135 8.52344C61.2028 9.64062 61.3975 11.0075 61.3975 12.624C61.3975 14.0882 61.1393 15.3958 60.623 16.5469C60.1152 17.6895 59.3451 18.5951 58.3125 19.2637C57.2884 19.9238 56.0316 20.2539 54.542 20.2539C52.2399 20.2539 50.5726 19.5472 49.54 18.1338C48.5075 16.7119 47.9912 14.833 47.9912 12.4971ZM55.0625 16.5342C55.4941 16.5342 55.7565 16.5003 55.8496 16.4326C56.0443 16.0941 56.1924 15.6159 56.2939 14.998C56.3955 14.3802 56.4463 13.7116 56.4463 12.9922C56.4463 12.332 56.404 11.7142 56.3193 11.1387C56.2347 10.5547 56.1162 10.0977 55.9639 9.76758C55.8708 9.65755 55.6846 9.57715 55.4053 9.52637C55.126 9.46712 54.8213 9.4375 54.4912 9.4375C54.0596 9.4375 53.7633 9.48405 53.6025 9.57715C53.1794 10.305 52.9678 11.3164 52.9678 12.6113C52.9678 13.2207 53.0143 13.8428 53.1074 14.4775C53.2005 15.1123 53.319 15.6878 53.4629 16.2041C53.5645 16.3141 53.7718 16.3988 54.085 16.458C54.3981 16.5088 54.724 16.5342 55.0625 16.5342Z" fill="black"/>
</svg>
